<svg xmlns="http://www.w3.org/2000/svg" viewBox="0 0 22 22" id="Viber"><g fill="none" fill-rule="evenodd"><g fill="#ffffff" transform="translate(-1)" class="color000000 svgShape"><path d="M22.9912,9.7932 C22.9262,8.0692 22.5472,6.5142 21.8622,5.1712 C21.3752,4.2192 20.8892,3.5662 20.0672,2.7602 C19.1842,1.9022 18.5022,1.4212 17.4582,0.9212 C16.3522,0.3942 15.5422,0.2212 14.4242,0.0842 C14.1902,0.0582 13.7622,0.0242 13.4692,0.0142 C12.9662,-0.0008 12.4792,-0.0178 12.0102,0.4002 C11.5972,0.7662 11.5612,1.3952 11.9272,1.8082 C12.2482,2.1722 12.7772,2.2452 13.1832,2.0072 C13.2422,2.0072 13.3142,2.0102 13.4042,2.0132 C13.6462,2.0212 14.0032,2.0492 14.1892,2.0702 C15.1482,2.1882 15.7232,2.3102 16.5952,2.7262 C17.4412,3.1302 17.9462,3.4872 18.6702,4.1902 C19.3372,4.8442 19.6922,5.3212 20.0812,6.0812 C20.6322,7.1622 20.9382,8.4372 20.9932,9.8712 C20.9982,9.9882 21.0022,10.0772 21.0022,10.1472 C20.7652,10.5622 20.8552,11.0992 21.2372,11.4132 C21.4232,11.5662 21.6482,11.6402 21.8712,11.6402 C22.1602,11.6402 22.4472,11.5162 22.6442,11.2752 C23.0322,10.8042 23.0122,10.3342 22.9912,9.7932" fill="#ffffff" class="color000000 svgShape"></path><path d="M11.6172,4.8205 C11.9932,5.0685 12.4762,5.0255 12.8042,4.7505 C12.8832,4.7555 13.0032,4.7675 13.1852,4.7945 C14.8102,5.0275 16.0452,5.7405 16.8522,6.9135 C17.2982,7.5615 17.5842,8.3455 17.6802,9.1755 C17.7002,9.3465 17.7062,9.5925 17.7052,9.7755 C17.3852,10.0725 17.2872,10.5575 17.4962,10.9655 C17.6732,11.3105 18.0232,11.5085 18.3872,11.5085 C18.5402,11.5085 18.6962,11.4735 18.8422,11.3985 C19.1732,11.2285 19.4712,10.9045 19.6002,10.5745 C19.7872,10.1065 19.6702,8.9635 19.6682,8.9485 C19.5332,7.7925 19.1302,6.6965 18.5002,5.7795 C17.3782,4.1515 15.6382,3.1255 13.4722,2.8155 C12.8402,2.7225 11.8842,2.5825 11.3252,3.4365 C11.0232,3.8995 11.1542,4.5185 11.6172,4.8205" fill="#ffffff" class="color000000 svgShape"></path><path d="M14.9668,11.2331 C15.1638,11.4521 15.4368,11.5641 15.7098,11.5641 C15.9488,11.5641 16.1888,11.4791 16.3788,11.3071 C17.0368,10.7141 16.9118,9.9071 16.8468,9.4771 C16.6888,8.4171 16.2928,7.6271 15.6008,6.9871 C15.0598,6.4911 14.4338,6.1821 13.6338,6.0161 C13.4688,5.9811 13.1588,5.9431 12.9518,5.9321 C12.6248,5.9121 12.3678,5.9121 12.0218,6.0801 C11.5288,6.3211 11.3308,6.9091 11.5678,7.4041 C11.7828,7.8581 12.3078,8.0691 12.7738,7.9251 L12.8358,7.9281 C12.9538,7.9351 13.1268,7.9531 13.2228,7.9731 C13.6648,8.0651 13.9818,8.2161 14.2458,8.4591 C14.5978,8.7831 14.7778,9.1631 14.8688,9.7771 C14.8828,9.8691 14.8918,9.9361 14.8958,9.9831 C14.6288,10.3571 14.6478,10.8781 14.9668,11.2331" fill="#ffffff" class="color000000 svgShape"></path><path d="M19.0762,14.2146 C18.5552,13.8606 17.7612,13.3796 17.3742,13.1846 C16.6842,12.8406 15.9562,12.7816 15.2592,13.0116 C15.1792,13.0386 15.1052,13.0666 15.0382,13.0946 C14.8952,13.1286 14.7582,13.1946 14.6372,13.2936 C14.5422,13.3716 14.4652,13.4636 14.4062,13.5656 C14.3842,13.5956 14.3462,13.6446 14.2872,13.7166 C14.1142,13.9246 13.9532,14.1186 13.8872,14.2016 L13.8712,14.2096 C13.8472,14.2096 13.6182,14.2426 12.8132,13.8506 C12.1812,13.5446 11.6312,13.1636 10.9742,12.5756 C10.4342,12.0946 9.8752,11.4536 9.5812,10.9806 C9.1882,10.3506 8.9452,9.6046 8.9432,9.3596 C8.9442,9.3346 8.9562,9.2866 8.9672,9.2516 L8.9692,9.2536 C9.0772,9.1566 9.2302,9.0286 9.3882,8.9036 L9.6322,8.7136 C9.9712,8.4496 10.2922,8.1996 10.3042,7.6726 C10.5022,6.9136 10.1692,6.1446 9.8972,5.6276 C9.3082,4.5036 7.5532,2.2706 6.7412,1.7446 C6.5932,1.6516 6.3522,1.5286 6.1652,1.4656 C5.8252,1.3456 5.2832,1.2656 4.8502,1.3596 C4.3282,1.4646 3.8302,1.7786 2.9762,2.3996 C2.5062,2.7426 1.6752,3.4876 1.3942,3.9446 C0.7952,4.9506 0.9392,5.8396 1.4172,7.1266 C1.8332,8.2466 2.3662,9.3756 3.0332,10.5326 C3.1602,10.7536 3.2912,10.9726 3.4632,11.2456 C3.5972,11.4626 3.7362,11.6786 3.8772,11.8886 L3.9922,12.0566 L4.0892,12.1966 C4.1792,12.3286 4.2682,12.4606 4.3612,12.5896 C4.5332,12.8286 4.7092,13.0676 4.8912,13.3056 C6.8392,15.8406 9.0822,17.8766 11.7512,19.5286 C11.7522,19.5296 11.8572,19.5956 11.8592,19.5966 C12.2592,19.8406 12.6672,20.0756 13.0802,20.2986 L13.2482,20.3886 C13.6652,20.6116 14.0902,20.8256 14.5242,21.0286 C14.5252,21.0296 14.6522,21.0876 14.6542,21.0886 C15.1052,21.2976 15.5642,21.4986 16.0352,21.6886 C16.5942,21.9146 16.9232,22.0086 17.4132,22.0086 C17.4842,22.0086 17.5592,22.0066 17.6392,22.0026 C17.9272,21.9896 18.1892,21.9456 18.4462,21.8676 C18.7952,21.7616 19.1332,21.5906 19.5002,21.3376 C19.5642,21.2936 19.6292,21.2486 19.7032,21.1936 C19.7852,21.1316 19.8732,21.0586 19.9602,20.9836 C20.3572,20.6406 20.8132,20.1426 21.1802,19.6516 C21.4742,19.2556 21.6832,18.9046 21.8022,18.6086 C21.9482,18.2386 22.0142,17.8646 21.9982,17.4986 L21.9982,17.4976 C21.9752,16.9986 21.7962,16.5326 21.4722,16.1436 C21.1722,15.7896 19.6462,14.6046 19.0762,14.2146" fill="#ffffff" class="color000000 svgShape"></path></g></g></svg>